Coordinates
version=1
nRows=17
nColumns=24
inDegrees=yes

Units are S.I. units (second, meters, Newtons, ...)
Angles are in degrees.

endheader
time	pelvis_tilt	pelvis_list	pelvis_rotation	pelvis_tx	pelvis_ty	pelvis_tz	hip_flexion_r	hip_adduction_r	hip_rotation_r	knee_angle_r	ankle_angle_r	subtalar_angle_r	mtp_angle_r	hip_flexion_l	hip_adduction_l	hip_rotation_l	knee_angle_l	ankle_angle_l	subtalar_angle_l	mtp_angle_l	lumbar_extension	lumbar_bending	lumbar_rotation
      2.62000000	     -6.39706454	      4.64029031	    361.18545776	     -0.22039420	      1.39221426	     -1.05895855	     27.61627800	     -3.56231694	      3.62158929	    -22.51760665	      1.47786958	     -9.47272450	     12.87538912	      3.58710687	      7.46502876	     -2.07402257	     -7.47858712	      5.25303054	     10.29349177	     17.27268903	      6.40603707	     -4.62668820	    104.95235512
      2.62500000	     -6.53110804	      4.70168634	    361.37956539	     -0.21540876	      1.39152062	     -1.05929972	     27.50715797	     -3.81127502	      3.61867972	    -20.61855005	      1.07537021	     -9.45015539	     12.63469107	      3.36800145	      7.56234767	     -1.84796334	     -7.40028468	      5.50776555	     10.32398256	     17.25519399	      6.61097271	     -4.67771339	    104.86382052
      2.63000000	     -6.50683274	      4.74136160	    361.57774082	     -0.21049728	      1.39100782	     -1.05960216	     27.18082794	     -4.03803143	      3.63186640	    -18.65317815	      0.58670794	     -9.52453341	     12.32161200	      2.97147763	      7.62850377	     -1.61582679	     -7.30775766	      5.70758348	     10.35126187	     17.12147652	      6.58926722	     -4.72785671	    104.60950906
      2.63500000	     -6.56046251	      4.77813746	    361.79565095	     -0.20546567	      1.39040126	     -1.05996306	     26.91227651	     -4.28375442	      3.58698239	    -16.67718144	      0.12679244	     -9.49762906	     12.12092001	      2.65428934	      7.69572995	     -1.35078349	     -7.21996708	      5.93362674	     10.36292268	     17.02117825	      6.69220005	     -4.75900412	    104.44465262
      2.64000000	     -6.64450374	      4.82037353	    362.02490380	     -0.20039508	      1.38971056	     -1.06034017	     26.65842435	     -4.54417761	      3.53639421	    -14.70293514	     -0.31149146	     -9.43255820	     11.97861927	      2.37156307	      7.76985130	     -1.04832965	     -7.14280511	      6.18707012	     10.35084387	     16.96107673	      6.83548542	     -4.78752527	    104.33126797
      2.64500000	     -6.60547801	      4.85900289	    362.26415318	     -0.19533293	      1.38915312	     -1.06070274	     26.23050590	     -4.80911283	      3.41738551	    -12.68436708	     -0.83098260	     -9.36621446	     11.91819559	      1.94161092	      7.83336243	     -0.75086723	     -7.04037860	      6.36826602	     10.31057325	     16.82096354	      6.82268248	     -4.82893511	    104.09327236
      2.65000000	     -6.60122685	      4.90171128	    362.51717992	     -0.19021174	      1.38851467	     -1.06107434	     25.82242435	     -5.08536500	      3.26970100	    -10.67972410	     -1.33341521	     -9.24207491	     11.94342799	      1.54916649	      7.89982182	     -0.41884878	     -6.94827346	      6.58339190	     10.26841562	     16.71229894	      6.86771014	     -4.86357458	    103.92706112
      2.65500000	     -6.60288816	      4.96207276	    362.77861535	     -0.18507728	      1.38782496	     -1.06141457	     25.41351304	     -5.37963315	      3.08564513	     -8.70906476	     -1.83757566	     -9.06790496	     12.03140989	      1.16438928	      7.98117458	     -0.06702352	     -6.86283644	      6.79106030	     10.19759395	     16.59998094	      6.91807451	     -4.92113279	    103.77532735
      2.66000000	     -6.59121744	      5.03556394	    363.04176695	     -0.17996687	      1.38709183	     -1.06170599	     24.99613832	     -5.68050130	      2.86327078	     -6.80127779	     -2.32011334	     -8.82834613	     12.16274780	      0.76969393	      8.06978951	      0.29261787	     -6.78800315	      7.00257545	     10.11697685	     16.49108810	      6.94525706	     -4.99626550	    103.62239864
      2.66500000	     -6.57206039	      5.13759588	    363.30317262	     -0.17490686	      1.38630834	     -1.06191102	     24.59129495	     -5.99713452	      2.60637406	     -4.98829990	     -2.75737137	     -8.51742283	     12.33076602	      0.37307379	      8.17986614	      0.65757571	     -6.72300858	      7.20694055	     10.03312287	     16.37406099	      6.95209252	     -5.11583720	    103.46727567
      2.67000000	     -6.58108626	      5.24098845	    363.55236484	     -0.16986911	      1.38546482	     -1.06202980	     24.24245814	     -6.29527707	      2.34559592	     -3.28682948	     -3.14223479	     -8.14900509	     12.47266502	      0.02101094	      8.28382224	      1.02415207	     -6.68565366	      7.42606725	      9.95154027	     16.27485832	      6.99077285	     -5.23484795	    103.36230523
      2.67500000	     -6.54105956	      5.37636663	    363.79406511	     -0.16488557	      1.38463546	     -1.06206332	     23.87423659	     -6.60446150	      1.99504908	     -1.71747091	     -3.46434813	     -7.70141223	     12.68325817	     -0.38941645	      8.41223794	      1.36036856	     -6.63619833	      7.62277125	      9.85661008	     16.12873039	      6.95702101	     -5.39944855	    103.22473214
      2.68000000	     -6.49805022	      5.49587369	    364.02142575	     -0.15994166	      1.38379581	     -1.06200846	     23.53617073	     -6.87241870	      1.63767594	     -0.28615745	     -3.72036634	     -7.22440535	     12.86444113	     -0.78962228	      8.51257513	      1.69454311	     -6.60724267	      7.83132504	      9.78909730	     15.99879947	      6.91217830	     -5.53985659	    103.12317500
      2.68500000	     -6.46760925	      5.62142342	    364.22985876	     -0.15503675	      1.38292372	     -1.06184255	     23.25917511	     -7.11701310	      1.26399788	      0.97748184	     -3.90051395	     -6.71986929	     13.02779498	     -1.16634998	      8.61042759	      2.00858975	     -6.59284039	      8.04432939	      9.72766943	     15.86419978	      6.87669052	     -5.69673130	    103.04551202
      2.69000000	     -6.39390555	      5.72173940	    364.42489431	     -0.15013812	      1.38211421	     -1.06160597	     22.96614438	     -7.30839466	      0.85054363	      2.09256083	     -4.01857727	     -6.20994346	     13.16646888	     -1.58861110	      8.66875105	      2.30322862	     -6.57662017	      8.25870117	      9.68987726	     15.73073904	      6.79144979	     -5.82112212	    102.98285981
      2.69500000	     -6.31462903	      5.80852499	    364.59838394	     -0.14525304	      1.38130525	     -1.06127674	     22.71288997	     -7.45559427	      0.42709956	      3.03374501	     -4.07292624	     -5.72215694	     13.27665952	     -2.00983688	      8.70294326	      2.56628268	     -6.56842814	      8.48087098	      9.67603872	     15.59743713	      6.70103937	     -5.93230660	    102.94483999
      2.70000000	     -6.22850423	      5.87658672	    364.75750557	     -0.14036648	      1.38052817	     -1.06089046	     22.49300146	     -7.55944136	     -0.00790767	      3.80341826	     -4.07466214	     -5.27134093	     13.35246476	     -2.43467131	      8.70949751	      2.81193216	     -6.56309170	      8.70210196	      9.67753214	     15.45243413	      6.60108580	     -6.01567983	    102.92715118
